<svg width="1440" height="90" viewBox="0 0 1440 90" fill="none" xmlns="http://www.w3.org/2000/svg">
<rect x="289" y="87" width="38" height="38" transform="rotate(-180 289 87)" fill="#0480C4"/>
<rect x="247" y="56" width="26" height="26" transform="rotate(-180 247 56)" fill="#CDE6F3"/>
<rect x="212" y="43" width="26" height="26" transform="rotate(-180 212 43)" fill="#0480C4"/>
<rect x="181" y="63" width="20" height="20" transform="rotate(-180 181 63)" fill="#0480C4"/>
<rect x="289" y="38" width="38" height="38" transform="rotate(-180 289 38)" fill="#0480C4" fill-opacity="0.2"/>
<rect x="866" y="90" width="38" height="38" transform="rotate(-180 866 90)" fill="#0480C4"/>
<rect x="824" y="59" width="26" height="26" transform="rotate(-180 824 59)" fill="#CDE6F3"/>
<rect x="789" y="46" width="26" height="26" transform="rotate(-180 789 46)" fill="#0480C4"/>
<rect x="758" y="66" width="20" height="20" transform="rotate(-180 758 66)" fill="#0480C4"/>
<rect x="866" y="41" width="38" height="38" transform="rotate(-180 866 41)" fill="#0480C4" fill-opacity="0.2"/>
<rect x="128" y="87" width="38" height="38" transform="rotate(-180 128 87)" fill="#0480C4"/>
<rect x="86" y="56" width="26" height="26" transform="rotate(-180 86 56)" fill="#CDE6F3"/>
<rect x="51" y="43" width="26" height="26" transform="rotate(-180 51 43)" fill="#0480C4"/>
<rect x="20" y="63" width="20" height="20" transform="rotate(-180 20 63)" fill="#0480C4"/>
<rect x="128" y="38" width="38" height="38" transform="rotate(-180 128 38)" fill="#0480C4" fill-opacity="0.2"/>
<rect x="341" width="38" height="38" fill="#0480C4"/>
<rect x="383" y="31" width="26" height="26" fill="#CDE6F3"/>
<rect x="418" y="44" width="26" height="26" fill="#0480C4"/>
<rect x="449" y="24" width="20" height="20" fill="#0480C4"/>
<rect x="341" y="49" width="38" height="38" fill="#CDE6F3"/>
<rect x="502" y="9" width="25" height="25" fill="#0480C4"/>
<path d="M531 33H547V49H531V33Z" fill="#CDE6F3"/>
<rect x="556" y="40" width="18" height="18" fill="#0480C4"/>
<rect x="567" y="17" width="20" height="20" fill="#0480C4"/>
<rect x="502" y="49" width="25" height="25" fill="#CDE6F3"/>
<path d="M600 36H610V46H600V36Z" fill="#D9D9D9" fill-opacity="0.2"/>
<path d="M488 37H498V47H488V37Z" fill="#D9D9D9" fill-opacity="0.2"/>
<path d="M473 60H483V70H473V60Z" fill="#D9D9D9" fill-opacity="0.2"/>
<path d="M415 22H425V32H415V22Z" fill="#D9D9D9" fill-opacity="0.2"/>
<path d="M309 12H319V22H309V12Z" fill="#D9D9D9" fill-opacity="0.2"/>
<path d="M203 2H213V12H203V2Z" fill="#D9D9D9" fill-opacity="0.2"/>
<path d="M649 34H665V50H649V34Z" fill="#CDE6F3"/>
<rect x="674" y="41" width="18" height="18" fill="#0480C4"/>
<rect x="685" y="18" width="20" height="20" fill="#0480C4"/>
<rect x="620" y="50" width="25" height="25" fill="#CDE6F3"/>
<rect x="1168" y="87" width="38" height="38" transform="rotate(-180 1168 87)" fill="#0480C4"/>
<rect x="1126" y="56" width="26" height="26" transform="rotate(-180 1126 56)" fill="#CDE6F3"/>
<rect x="1091" y="43" width="26" height="26" transform="rotate(-180 1091 43)" fill="#0480C4"/>
<rect x="1060" y="63" width="20" height="20" transform="rotate(-180 1060 63)" fill="#0480C4"/>
<rect x="1168" y="38" width="38" height="38" transform="rotate(-180 1168 38)" fill="#0480C4" fill-opacity="0.2"/>
<rect x="1007" y="87" width="38" height="38" transform="rotate(-180 1007 87)" fill="#0480C4"/>
<rect x="965" y="56" width="26" height="26" transform="rotate(-180 965 56)" fill="#CDE6F3"/>
<rect x="930" y="43" width="26" height="26" transform="rotate(-180 930 43)" fill="#0480C4"/>
<rect x="899" y="63" width="20" height="20" transform="rotate(-180 899 63)" fill="#0480C4"/>
<rect x="1007" y="38" width="38" height="38" transform="rotate(-180 1007 38)" fill="#0480C4" fill-opacity="0.5"/>
<rect x="1220" width="38" height="38" fill="#0480C4"/>
<rect x="1262" y="31" width="26" height="26" fill="#CDE6F3"/>
<rect x="1297" y="44" width="26" height="26" fill="#0480C4"/>
<rect x="1328" y="24" width="20" height="20" fill="#0480C4"/>
<rect x="1220" y="49" width="38" height="38" fill="#CDE6F3"/>
<rect x="1381" y="9" width="25" height="25" fill="#0480C4"/>
<path d="M1410 33H1426V49H1410V33Z" fill="#CDE6F3"/>
<rect x="1435" y="40" width="18" height="18" fill="#0480C4"/>
<rect x="1381" y="49" width="25" height="25" fill="#CDE6F3"/>
<path d="M1367 37H1377V47H1367V37Z" fill="#D9D9D9" fill-opacity="0.2"/>
<path d="M1352 60H1362V70H1352V60Z" fill="#D9D9D9" fill-opacity="0.2"/>
<path d="M1294 22H1304V32H1294V22Z" fill="#D9D9D9" fill-opacity="0.2"/>
<path d="M1188 12H1198V22H1188V12Z" fill="#D9D9D9" fill-opacity="0.2"/>
<path d="M1082 2H1092V12H1082V2Z" fill="#D9D9D9" fill-opacity="0.2"/>
</svg>
