<svg width="1435" height="35" viewBox="0 0 1435 35" fill="none" xmlns="http://www.w3.org/2000/svg">
<path d="M222 14H227V19H222V14Z" fill="#E6F6FE"/>
<path d="M201 30H206V35H201V30Z" fill="#E6F6FE"/>
<path d="M236 28H241V33H236V28Z" fill="#E6F6FE"/>
<path d="M254 25H264V35H254V25Z" fill="#E6F6FE"/>
<path d="M236 6H252V22H236V6Z" fill="#E6F6FE"/>
<path d="M180.5 19H196.5V35H180.5V19Z" fill="#E6F6FE"/>
<path d="M178 6H183V11H178V6Z" fill="#E6F6FE"/>
<path d="M222 25H232V35H222V25Z" fill="#E6F6FE"/>
<path d="M337 3H347V13H337V3Z" fill="#E6F6FE"/>
<path d="M324 27H329V32H324V27Z" fill="#E6F6FE"/>
<path d="M324 8H329V13H324V8Z" fill="#E6F6FE"/>
<path d="M301 30H306V35H301V30Z" fill="#E6F6FE"/>
<path d="M288 8H293V13H288V8Z" fill="#E6F6FE"/>
<path d="M259 3H275V19H259V3Z" fill="#E6F6FE"/>
<path d="M259 3H275V19H259V3Z" fill="#E6F6FE"/>
<path d="M335 19H351V35H335V19Z" fill="#E6F6FE"/>
<path d="M335 19H351V35H335V19Z" fill="#E6F6FE"/>
<path d="M304 9H320V25H304V9Z" fill="#E6F6FE"/>
<path d="M279 19H295V35H279V19Z" fill="#E6F6FE"/>
<path d="M203 11H219V27H203V11Z" fill="#E6F6FE"/>
<path d="M189 1H199V11H189V1Z" fill="#E6F6FE"/>
<path d="M583 14H588V19H583V14Z" fill="#E6F6FE"/>
<path d="M562 30H567V35H562V30Z" fill="#E6F6FE"/>
<path d="M597 28H602V33H597V28Z" fill="#E6F6FE"/>
<path d="M615 25H625V35H615V25Z" fill="#E6F6FE"/>
<path d="M597 6H613V22H597V6Z" fill="#E6F6FE"/>
<path d="M541.5 19H557.5V35H541.5V19Z" fill="#E6F6FE"/>
<path d="M539 6H544V11H539V6Z" fill="#E6F6FE"/>
<path d="M583 25H593V35H583V25Z" fill="#E6F6FE"/>
<path d="M698 3H708V13H698V3Z" fill="#E6F6FE"/>
<path d="M685 27H690V32H685V27Z" fill="#E6F6FE"/>
<path d="M685 8H690V13H685V8Z" fill="#E6F6FE"/>
<path d="M662 30H667V35H662V30Z" fill="#E6F6FE"/>
<path d="M649 8H654V13H649V8Z" fill="#E6F6FE"/>
<path d="M620 3H636V19H620V3Z" fill="#E6F6FE"/>
<path d="M620 3H636V19H620V3Z" fill="#E6F6FE"/>
<path d="M696 19H712V35H696V19Z" fill="#E6F6FE"/>
<path d="M696 19H712V35H696V19Z" fill="#E6F6FE"/>
<path d="M665 9H681V25H665V9Z" fill="#E6F6FE"/>
<path d="M640 19H656V35H640V19Z" fill="#E6F6FE"/>
<path d="M564 11H580V27H564V11Z" fill="#E6F6FE"/>
<path d="M550 1H560V11H550V1Z" fill="#E6F6FE"/>
<path d="M1306 14H1311V19H1306V14Z" fill="#E6F6FE"/>
<path d="M1285 30H1290V35H1285V30Z" fill="#E6F6FE"/>
<path d="M1320 28H1325V33H1320V28Z" fill="#E6F6FE"/>
<path d="M1338 25H1348V35H1338V25Z" fill="#E6F6FE"/>
<path d="M1320 6H1336V22H1320V6Z" fill="#E6F6FE"/>
<path d="M1264.5 19H1280.5V35H1264.5V19Z" fill="#E6F6FE"/>
<path d="M1262 6H1267V11H1262V6Z" fill="#E6F6FE"/>
<path d="M1306 25H1316V35H1306V25Z" fill="#E6F6FE"/>
<path d="M1421 3H1431V13H1421V3Z" fill="#E6F6FE"/>
<path d="M1408 27H1413V32H1408V27Z" fill="#E6F6FE"/>
<path d="M1408 8H1413V13H1408V8Z" fill="#E6F6FE"/>
<path d="M1385 30H1390V35H1385V30Z" fill="#E6F6FE"/>
<path d="M1372 8H1377V13H1372V8Z" fill="#E6F6FE"/>
<path d="M1343 3H1359V19H1343V3Z" fill="#E6F6FE"/>
<path d="M1343 3H1359V19H1343V3Z" fill="#E6F6FE"/>
<path d="M1419 19H1435V35H1419V19Z" fill="#E6F6FE"/>
<path d="M1419 19H1435V35H1419V19Z" fill="#E6F6FE"/>
<path d="M1388 9H1404V25H1388V9Z" fill="#E6F6FE"/>
<path d="M1363 19H1379V35H1363V19Z" fill="#E6F6FE"/>
<path d="M1287 11H1303V27H1287V11Z" fill="#E6F6FE"/>
<path d="M1273 1H1283V11H1273V1Z" fill="#E6F6FE"/>
<path d="M1124 13H1129V18H1124V13Z" fill="#E6F6FE"/>
<path d="M1103 29H1108V34H1103V29Z" fill="#E6F6FE"/>
<path d="M1138 27H1143V32H1138V27Z" fill="#E6F6FE"/>
<path d="M1156 24H1166V34H1156V24Z" fill="#E6F6FE"/>
<path d="M1138 5H1154V21H1138V5Z" fill="#E6F6FE"/>
<path d="M1082.5 18H1098.5V34H1082.5V18Z" fill="#E6F6FE"/>
<path d="M1080 5H1085V10H1080V5Z" fill="#E6F6FE"/>
<path d="M1124 24H1134V34H1124V24Z" fill="#E6F6FE"/>
<path d="M1239 2H1249V12H1239V2Z" fill="#E6F6FE"/>
<path d="M1226 26H1231V31H1226V26Z" fill="#E6F6FE"/>
<path d="M1226 7H1231V12H1226V7Z" fill="#E6F6FE"/>
<path d="M1203 29H1208V34H1203V29Z" fill="#E6F6FE"/>
<path d="M1190 7H1195V12H1190V7Z" fill="#E6F6FE"/>
<path d="M1161 2H1177V18H1161V2Z" fill="#E6F6FE"/>
<path d="M1161 2H1177V18H1161V2Z" fill="#E6F6FE"/>
<path d="M1237 18H1253V34H1237V18Z" fill="#E6F6FE"/>
<path d="M1237 18H1253V34H1237V18Z" fill="#E6F6FE"/>
<path d="M1206 8H1222V24H1206V8Z" fill="#E6F6FE"/>
<path d="M1181 18H1197V34H1181V18Z" fill="#E6F6FE"/>
<path d="M1105 10H1121V26H1105V10Z" fill="#E6F6FE"/>
<path d="M1091 0H1101V10H1091V0Z" fill="#E6F6FE"/>
<path d="M942 14H947V19H942V14Z" fill="#E6F6FE"/>
<path d="M921 30H926V35H921V30Z" fill="#E6F6FE"/>
<path d="M956 28H961V33H956V28Z" fill="#E6F6FE"/>
<path d="M974 25H984V35H974V25Z" fill="#E6F6FE"/>
<path d="M956 6H972V22H956V6Z" fill="#E6F6FE"/>
<path d="M900.5 19H916.5V35H900.5V19Z" fill="#E6F6FE"/>
<path d="M898 6H903V11H898V6Z" fill="#E6F6FE"/>
<path d="M942 25H952V35H942V25Z" fill="#E6F6FE"/>
<path d="M1057 3H1067V13H1057V3Z" fill="#E6F6FE"/>
<path d="M1044 27H1049V32H1044V27Z" fill="#E6F6FE"/>
<path d="M1044 8H1049V13H1044V8Z" fill="#E6F6FE"/>
<path d="M1021 30H1026V35H1021V30Z" fill="#E6F6FE"/>
<path d="M1008 8H1013V13H1008V8Z" fill="#E6F6FE"/>
<path d="M979 3H995V19H979V3Z" fill="#E6F6FE"/>
<path d="M979 3H995V19H979V3Z" fill="#E6F6FE"/>
<path d="M1055 19H1071V35H1055V19Z" fill="#E6F6FE"/>
<path d="M1055 19H1071V35H1055V19Z" fill="#E6F6FE"/>
<path d="M1024 9H1040V25H1024V9Z" fill="#E6F6FE"/>
<path d="M999 19H1015V35H999V19Z" fill="#E6F6FE"/>
<path d="M923 11H939V27H923V11Z" fill="#E6F6FE"/>
<path d="M909 1H919V11H909V1Z" fill="#E6F6FE"/>
<path d="M762 14H767V19H762V14Z" fill="#E6F6FE"/>
<path d="M741 30H746V35H741V30Z" fill="#E6F6FE"/>
<path d="M776 28H781V33H776V28Z" fill="#E6F6FE"/>
<path d="M794 25H804V35H794V25Z" fill="#E6F6FE"/>
<path d="M776 6H792V22H776V6Z" fill="#E6F6FE"/>
<path d="M720.5 19H736.5V35H720.5V19Z" fill="#E6F6FE"/>
<path d="M718 6H723V11H718V6Z" fill="#E6F6FE"/>
<path d="M762 25H772V35H762V25Z" fill="#E6F6FE"/>
<path d="M877 3H887V13H877V3Z" fill="#E6F6FE"/>
<path d="M864 27H869V32H864V27Z" fill="#E6F6FE"/>
<path d="M864 8H869V13H864V8Z" fill="#E6F6FE"/>
<path d="M841 30H846V35H841V30Z" fill="#E6F6FE"/>
<path d="M828 8H833V13H828V8Z" fill="#E6F6FE"/>
<path d="M799 3H815V19H799V3Z" fill="#E6F6FE"/>
<path d="M799 3H815V19H799V3Z" fill="#E6F6FE"/>
<path d="M875 19H891V35H875V19Z" fill="#E6F6FE"/>
<path d="M875 19H891V35H875V19Z" fill="#E6F6FE"/>
<path d="M844 9H860V25H844V9Z" fill="#E6F6FE"/>
<path d="M819 19H835V35H819V19Z" fill="#E6F6FE"/>
<path d="M743 11H759V27H743V11Z" fill="#E6F6FE"/>
<path d="M729 1H739V11H729V1Z" fill="#E6F6FE"/>
<path d="M401 14H406V19H401V14Z" fill="#E6F6FE"/>
<path d="M380 30H385V35H380V30Z" fill="#E6F6FE"/>
<path d="M415 28H420V33H415V28Z" fill="#E6F6FE"/>
<path d="M433 25H443V35H433V25Z" fill="#E6F6FE"/>
<path d="M415 6H431V22H415V6Z" fill="#E6F6FE"/>
<path d="M359.5 19H375.5V35H359.5V19Z" fill="#E6F6FE"/>
<path d="M357 6H362V11H357V6Z" fill="#E6F6FE"/>
<path d="M401 25H411V35H401V25Z" fill="#E6F6FE"/>
<path d="M516 3H526V13H516V3Z" fill="#E6F6FE"/>
<path d="M503 27H508V32H503V27Z" fill="#E6F6FE"/>
<path d="M503 8H508V13H503V8Z" fill="#E6F6FE"/>
<path d="M480 30H485V35H480V30Z" fill="#E6F6FE"/>
<path d="M467 8H472V13H467V8Z" fill="#E6F6FE"/>
<path d="M438 3H454V19H438V3Z" fill="#E6F6FE"/>
<path d="M438 3H454V19H438V3Z" fill="#E6F6FE"/>
<path d="M514 19H530V35H514V19Z" fill="#E6F6FE"/>
<path d="M514 19H530V35H514V19Z" fill="#E6F6FE"/>
<path d="M483 9H499V25H483V9Z" fill="#E6F6FE"/>
<path d="M458 19H474V35H458V19Z" fill="#E6F6FE"/>
<path d="M382 11H398V27H382V11Z" fill="#E6F6FE"/>
<path d="M368 1H378V11H368V1Z" fill="#E6F6FE"/>
<path d="M44 14H49V19H44V14Z" fill="#E6F6FE"/>
<path d="M23 30H28V35H23V30Z" fill="#E6F6FE"/>
<path d="M58 28H63V33H58V28Z" fill="#E6F6FE"/>
<path d="M76 25H86V35H76V25Z" fill="#E6F6FE"/>
<path d="M58 6H74V22H58V6Z" fill="#E6F6FE"/>
<path d="M2.5 19H18.5V35H2.5V19Z" fill="#E6F6FE"/>
<path d="M0 6H5V11H0V6Z" fill="#E6F6FE"/>
<path d="M44 25H54V35H44V25Z" fill="#E6F6FE"/>
<path d="M159 3H169V13H159V3Z" fill="#E6F6FE"/>
<path d="M146 27H151V32H146V27Z" fill="#E6F6FE"/>
<path d="M146 8H151V13H146V8Z" fill="#E6F6FE"/>
<path d="M123 30H128V35H123V30Z" fill="#E6F6FE"/>
<path d="M110 8H115V13H110V8Z" fill="#E6F6FE"/>
<path d="M81 3H97V19H81V3Z" fill="#E6F6FE"/>
<path d="M81 3H97V19H81V3Z" fill="#E6F6FE"/>
<path d="M157 19H173V35H157V19Z" fill="#E6F6FE"/>
<path d="M157 19H173V35H157V19Z" fill="#E6F6FE"/>
<path d="M126 9H142V25H126V9Z" fill="#E6F6FE"/>
<path d="M101 19H117V35H101V19Z" fill="#E6F6FE"/>
<path d="M25 11H41V27H25V11Z" fill="#E6F6FE"/>
<path d="M11 1H21V11H11V1Z" fill="#E6F6FE"/>
</svg>
